PathFileType	4	(X/Y/Z)	/Users/visionmauri/1_6_1_f_Sports2D/1_6_1_f_Sports2D_px_person00.trc
DataRate	CameraRate	NumFrames	NumMarkers	Units	OrigDataRate	OrigDataStartFrame	OrigNumFrames
30.0	30.0	12	22	m	30.0	167	447
Frame#	Time	Hip			RHip			RKnee			RAnkle			RBigToe			RSmallToe			RHeel			LHip			LKnee			LAnkle			LBigToe			LSmallToe			LHeel			Neck			Head			Nose			RShoulder			RElbow			RWrist			LShoulder			LElbow			LWrist			
		X1	Y1	Z1	X2	Y2	Z2	X3	Y3	Z3	X4	Y4	Z4	X5	Y5	Z5	X6	Y6	Z6	X7	Y7	Z7	X8	Y8	Z8	X9	Y9	Z9	X10	Y10	Z10	X11	Y11	Z11	X12	Y12	Z12	X13	Y13	Z13	X14	Y14	Z14	X15	Y15	Z15	X16	Y16	Z16	X17	Y17	Z17	X18	Y18	Z18	X19	Y19	Z19	X20	Y20	Z20	X21	Y21	Z21	X22	Y22	Z22
167	5.57914798206278	587.5943248270991	811.5843778148843	0.0	639.5526189860562	818.6304846956152	0.0	627.524835871666	1048.0399385459448	0.0	606.9169644946522	1268.2543189376272	0.0	587.0715259226243	1305.4901535903582	0.0	626.8575909756238	1315.3323436489504	0.0	600.621937932988	1299.5850601141804	0.0	537.8313354366521	818.6067114349546	0.0	537.658978200591	992.3409683976536	0.0	539.8215756092486	1178.8801085670357	0.0	536.6075900250892	1229.3757971739944	0.0	513.5318937434621	1231.9151933153835	0.0	546.3465733902295	1204.7788849336928	0.0	581.4248969715471	547.6432454522198	0.0	560.4464003161645	455.26733328437194	0.0	567.8187741531134	507.84563738834095	0.0	676.4997278355713	576.297721552655	0.0	728.250660077586	717.1910602047471	0.0	732.4284279417459	817.0424424319289	0.0	495.2855523953117	573.1310820535841	0.0	446.81928363380763	709.2296234044422	0.0	451.1993687648153	719.4582350748941	0.0
168	5.612556053811659	585.1731347872991	811.2400093943824	0.0	637.4632469960698	819.0939430194578	0.0	626.1101980056233	1046.9625353887545	0.0	607.1974569786372	1265.7547596697862	0.0	586.2251369649725	1305.9132966580514	0.0	625.9755246591197	1314.655123409993	0.0	600.7848527974477	1298.22259345247	0.0	535.872603868246	818.2507183411565	0.0	534.923273867715	990.3088191549795	0.0	539.0231352227006	1183.301737823744	0.0	533.4990360176342	1228.2510004008193	0.0	511.6459494626987	1231.6543078100663	0.0	545.7007859774908	1210.4280854170845	0.0	579.4638128307417	546.9031449339072	0.0	555.5450088968847	454.37402755158877	0.0	561.7997365204445	508.1761821089424	0.0	675.2516914668172	576.2641755743821	0.0	727.55885090181	715.3028307415966	0.0	732.4652275261253	816.0200253563239	0.0	493.8262388680929	573.8764303193823	0.0	446.01849622189417	710.5096523003157	0.0	451.0475644259887	718.2238916461123	0.0
169	5.645964125560538	582.448984190029	813.3157258483047	0.0	635.385345654467	820.1291333380849	0.0	625.0308105537842	1045.486371535863	0.0	607.9575280207373	1263.0729368493962	0.0	584.6943270744732	1305.53129643957	0.0	623.6174408549614	1313.102223803933	0.0	601.0973165289504	1295.5962355236384	0.0	533.6223426187007	818.4092525466948	0.0	532.531327171578	987.3640745098983	0.0	538.2152968775994	1188.6124805278873	0.0	534.529634100679	1226.6934991422477	0.0	511.254835064745	1230.7683251896483	0.0	544.9336109464605	1218.9047227658018	0.0	577.2527280319432	546.8610900099428	0.0	551.4298766991955	453.96422284864445	0.0	554.5380186261362	508.66349496771204	0.0	672.6600476931416	576.1013412249291	0.0	726.990222960568	712.6946314519782	0.0	732.2959300708083	816.7958496905064	0.0	491.7196516376334	574.3752726816673	0.0	444.78847995476633	712.1375798889155	0.0	451.3771966952416	717.0557411796234	0.0
170	5.679372197309417	580.009002527834	816.0031774383933	0.0	633.0651136728337	820.7394888498155	0.0	624.3980522425868	1043.4711538650106	0.0	608.4837148304099	1259.7680062299148	0.0	583.3261816139888	1304.3397184698472	0.0	620.8640637862645	1311.0743512469812	0.0	601.546275139238	1292.2224102005944	0.0	531.5210272858967	819.039024385925	0.0	530.864367915783	983.8612671725448	0.0	536.5869141508625	1179.080170391647	0.0	534.829559881382	1223.997419385187	0.0	510.8891646661089	1228.78896868785	0.0	543.9076134682057	1210.3126869940293	0.0	574.8404503279866	547.188002817817	0.0	547.4616573744491	453.504408162704	0.0	547.249371880431	508.70170857751594	0.0	669.6214779418334	576.0633716659595	0.0	726.6742418520541	710.5297405776573	0.0	732.0644015963642	819.0434442914375	0.0	489.66594680517017	574.7978101232572	0.0	443.8829170879285	713.7078757373056	0.0	451.40233154000515	716.1690219939825	0.0
171	5.712780269058295	578.0641019202848	817.3810241198734	0.0	630.6391376423873	820.7884717521498	0.0	624.289189686406	1041.459023049549	0.0	608.4933391718052	1254.814648697069	0.0	582.9239339530254	1302.6891562540577	0.0	619.4553798867337	1308.5144612993388	0.0	601.8295877944158	1288.2170176528298	0.0	529.9994636302129	819.672406353093	0.0	529.6553622008836	981.1062518583786	0.0	534.5749307126069	1135.5915875516428	0.0	531.4474515119982	1220.092735315037	0.0	509.92989211630095	1226.4649798164944	0.0	543.1959773327559	1158.549222282781	0.0	572.2789908271111	547.4182360688282	0.0	542.5150857963566	452.590668693219	0.0	540.4258717496531	508.4674973461419	0.0	666.8981260525326	576.0860987091875	0.0	726.6482284256011	709.1875985128917	0.0	731.8845830721298	820.3987389176167	0.0	488.3798551975615	575.8028222322262	0.0	443.6734755519842	714.3925728139756	0.0	450.444005835986	716.9404811271792	0.0
172	5.7461883408071746	576.4901684876457	817.5075514657943	0.0	628.4386294163766	821.101132276266	0.0	624.7933889884094	1039.3941714142286	0.0	608.5974361675517	1248.1762253263034	0.0	583.3697137760661	1301.4435617650843	0.0	619.6888355965674	1305.5103404238025	0.0	601.8693830539859	1281.948445495617	0.0	529.0550647044226	819.9558742110763	0.0	528.4135324482348	979.4708986664009	0.0	533.3945102783865	1067.9861840820968	0.0	528.1182518488563	1216.153237964051	0.0	508.9862704417645	1224.837330856115	0.0	543.3109404712147	1073.3960968569695	0.0	569.43434025848	547.4109320409518	0.0	536.726492241187	451.3961405103816	0.0	533.5967974058319	508.36375262706053	0.0	663.7656729911669	576.0332341295112	0.0	726.7452131057358	707.9753541693293	0.0	731.604646666415	820.1381532058939	0.0	487.76137129982743	577.5473813457434	0.0	443.6993317429915	713.8965017152913	0.0	448.84014017458	718.7432797293421	0.0
173	5.779596412556053	575.2334760670101	817.3697161374561	0.0	626.59085403046	821.7724937817042	0.0	625.9363499491106	1036.8340209158648	0.0	609.7901860247904	1239.6740786808925	0.0	583.8116191725055	1301.1751413481231	0.0	620.5601507166784	1302.532087393359	0.0	602.250661539099	1271.7141015835073	0.0	528.1330462774984	820.0317769138966	0.0	527.2184319625562	978.5672649643847	0.0	533.3869689207148	1013.9398783718343	0.0	528.1426316028237	1212.73637349443	0.0	508.23357826562784	1223.5947304025424	0.0	543.9091704706146	1005.4924181293611	0.0	566.1424013981583	547.5691600618362	0.0	530.3751377046791	450.44278224504944	0.0	525.884330969549	508.80296781898153	0.0	659.6704974745797	576.197123082473	0.0	726.7403385247258	706.142962140986	0.0	731.157765993716	819.1623406383143	0.0	486.8227594580304	579.422118073634	0.0	443.5744141463992	713.3470997393035	0.0	447.27204479708377	719.6060497788001	0.0
174	5.813004484304932	574.4620390404626	817.5075410085291	0.0	625.4423821951143	821.8265544928627	0.0	627.3112130705134	1033.3249984296233	0.0	612.7199014424153	1227.592080268009	0.0	583.6087942991198	1300.7972800448028	0.0	621.4219125358791	1299.1391089761994	0.0	604.1608797467293	1257.9709946310331	0.0	527.1420136038819	820.073796191773	0.0	526.5369395071097	978.0743636191969	0.0	533.743689210296	995.4135528204155	0.0	529.4095317605945	1209.8303956575373	0.0	506.93556198262274	1223.3347889670786	0.0	544.3374366225901	999.3928126029149	0.0	562.3155036428647	548.2760622687	0.0	522.7380515241257	449.9203999007906	0.0	517.0503968974776	509.9253966023151	0.0	655.5821895810728	576.7882622051488	0.0	726.7455980033176	702.7451713126961	0.0	730.9800578967224	816.8570206345117	0.0	484.92721352698965	580.7199479522657	0.0	443.2110214927845	714.03202191475	0.0	445.7124746421675	719.2824829249683	0.0
175	5.846412556053811	574.2992246330307	817.7448132001903	0.0	625.076414035928	820.8538797962221	0.0	628.2669035519707	1028.8223264856483	0.0	617.43588211499	1210.572817407264	0.0	582.9652900936427	1298.214943067821	0.0	622.6096923274825	1293.7859102610098	0.0	608.9689500900266	1241.9568450575164	0.0	526.7919728937507	819.8890259920051	0.0	526.3905646955324	977.9673830001353	0.0	534.2186703413901	1012.2027256023546	0.0	529.6435773309	1206.444361456348	0.0	505.3819932623427	1224.2741041090774	0.0	544.9525220431703	1062.8389759523548	0.0	558.0551521078764	549.2920092945254	0.0	514.124851940857	449.57329120219265	0.0	508.9691575671402	511.01495437855084	0.0	651.9307090484886	577.5138055152748	0.0	727.3433495541976	696.3590884104975	0.0	731.2006312362339	811.0401408204542	0.0	482.5434309256721	581.3310864489061	0.0	442.67543471998493	715.9559657961773	0.0	444.1243436373804	719.3675616758917	0.0
176	5.87982062780269	574.988344157563	817.8470004633183	0.0	625.2400751491768	819.6944989691525	0.0	628.4448251787229	1023.6423876903091	0.0	623.4969058121737	1190.5652635895822	0.0	583.5489616617459	1292.3658523119964	0.0	624.9062499267701	1285.096784439733	0.0	617.0044008411899	1224.1995676921467	0.0	527.7656528066415	819.503229192951	0.0	526.415485964756	978.8452117740421	0.0	535.7193295873282	1063.09762497944	0.0	529.551054430308	1201.9777364618349	0.0	505.55536656014215	1223.6955412491113	0.0	546.6419675050331	1159.1617704049506	0.0	553.9472783815028	549.9591087585109	0.0	506.5382478389745	449.28394511294994	0.0	503.8514199411335	511.43385139161603	0.0	647.407661924045	577.8207005895011	0.0	728.9578785793694	687.1217176862792	0.0	731.0481570719412	801.9612115003971	0.0	480.7129044067955	581.7550655402147	0.0	442.4016124304491	718.3470127141486	0.0	442.9195973504952	721.4876616899381	0.0
177	5.913228699551569	576.7741555682848	818.0967800329914	0.0	626.1109972952697	819.182591356792	0.0	627.6064832394128	1017.9715609312685	0.0	630.0001190859675	1173.8433902765562	0.0	587.7594174826207	1284.2108001712875	0.0	629.2126664214173	1273.9156672351194	0.0	626.501205774853	1208.4184539690186	0.0	530.0299211774034	819.4920957435525	0.0	526.4237796120124	981.0953574419219	0.0	538.0651027869696	1128.7516339724873	0.0	530.0268130574706	1201.6425665819056	0.0	508.0796957044104	1221.6383537043728	0.0	548.6690948912408	1228.6476947729254	0.0	550.927258625008	550.2204183450909	0.0	500.8736720870959	449.46076925242113	0.0	500.9301550485813	512.0352876637804	0.0	642.1089114129131	577.3006238621936	0.0	731.138569695068	678.0534460649704	0.0	729.6717370796125	792.9057530111113	0.0	480.0488164338237	582.5600478784097	0.0	442.6282206417511	721.0129841888967	0.0	442.6672947598458	725.7557856463196	0.0
178	5.946636771300448	579.173723292836	818.4514589061312	0.0	627.848971217312	819.0662525307088	0.0	625.3190027728826	1012.5055527074658	0.0	635.6666669936145	1166.9991688397224	0.0	595.298105576542	1275.1348270009744	0.0	635.8777037743283	1263.3484273387978	0.0	634.4897645653156	1201.5426713810643	0.0	532.6991310592645	819.921303141628	0.0	526.429087208223	983.5101941863614	0.0	539.3887225065293	1172.6244999325247	0.0	531.03101544601	1209.9049391719075	0.0	510.8544314915846	1222.06800454743	0.0	549.5331770777506	1250.954706096597	0.0	549.2396150502544	550.8525355730997	0.0	496.1588689346777	450.32195854252177	0.0	497.3284431423369	514.070150866634	0.0	638.3703849825437	576.1039276127681	0.0	732.7200137673378	672.2812295482097	0.0	726.5200643084822	785.8647318458952	0.0	480.18768696974	583.793813280664	0.0	443.1068529269621	723.9403562824705	0.0	444.2610541258163	730.1852619417556	0.0
